<svg width="32" height="32" viewBox="0 0 32 32" fill="none" xmlns="http://www.w3.org/2000/svg">
<g clip-path="url(#clip0_23_103)">
<mask id="mask0_23_103" style="mask-type:luminance" maskUnits="userSpaceOnUse" x="0" y="6" width="32" height="20">
<path d="M32 6H0V26H32V6Z" fill="white"/>
</mask>
<g mask="url(#mask0_23_103)">
<path d="M0 16C0 10.4771 4.3251 6 9.66038 6H22.3396C27.6749 6 32 10.4771 32 16V26H9.66038C4.3251 26 0 21.5229 0 16Z" fill="#4ABF2A"/>
<path d="M22.3397 9.75H9.66042C6.3259 9.75 3.62268 12.5483 3.62268 16C3.62268 19.4517 6.3259 22.25 9.66042 22.25H22.3397C25.6742 22.25 28.3774 19.4517 28.3774 16C28.3774 12.5483 25.6742 9.75 22.3397 9.75Z" fill="#081505"/>
<path d="M9.35847 19.125C11.0257 19.125 12.3773 17.7259 12.3773 16C12.3773 14.2741 11.0257 12.875 9.35847 12.875C7.69121 12.875 6.3396 14.2741 6.3396 16C6.3396 17.7259 7.69121 19.125 9.35847 19.125Z" fill="#1E4E11"/>
<path d="M8.45277 15.375C8.78624 15.375 9.05655 15.0952 9.05655 14.75C9.05655 14.4048 8.78624 14.125 8.45277 14.125C8.11931 14.125 7.849 14.4048 7.849 14.75C7.849 15.0952 8.11931 15.375 8.45277 15.375Z" fill="#B8E7AA"/>
<path d="M22.6415 19.125C24.3088 19.125 25.6604 17.7259 25.6604 16C25.6604 14.2741 24.3088 12.875 22.6415 12.875C20.9743 12.875 19.6227 14.2741 19.6227 16C19.6227 17.7259 20.9743 19.125 22.6415 19.125Z" fill="#1E4E11"/>
<path d="M21.7359 15.375C22.0693 15.375 22.3396 15.0952 22.3396 14.75C22.3396 14.4048 22.0693 14.125 21.7359 14.125C21.4024 14.125 21.1321 14.4048 21.1321 14.75C21.1321 15.0952 21.4024 15.375 21.7359 15.375Z" fill="#B8E7AA"/>
</g>
</g>
<defs>
<clipPath id="clip0_23_103">
<rect width="32" height="20" fill="white" transform="translate(0 6)"/>
</clipPath>
</defs>
</svg>
