<svg width="24" height="24" viewBox="0 0 24 24" fill="none" xmlns="http://www.w3.org/2000/svg">
<path fill-rule="evenodd" clip-rule="evenodd" d="M19 3C20.6569 3 22 4.34315 22 6V16C22 17.6569 20.6569 19 19 19H7.33333L4 21.5C3.17596 22.118 2 21.5301 2 20.5V6C2 4.34315 3.34315 3 5 3H19ZM11 12H8C7.44772 12 7 12.4477 7 13C7 13.5523 7.44772 14 8 14H11C11.5523 14 12 13.5523 12 13C12 12.4477 11.5523 12 11 12ZM16 8H8C7.44772 8 7 8.44772 7 9C7 9.51283 7.38604 9.93551 7.88338 9.99327L8 10H16C16.5523 10 17 9.55228 17 9C17 8.48717 16.614 8.06449 16.1166 8.00673L16 8Z" fill="#D7D7D7"/>
</svg>
