<svg width="24" height="24" viewBox="0 0 24 24" fill="none" xmlns="http://www.w3.org/2000/svg">
<path d="M14.6209 2.66215C15.4185 2.88601 15.8836 3.71408 15.6597 4.51169L11.2287 20.299C11.0048 21.0966 10.1767 21.5617 9.37914 21.3378C8.58153 21.114 8.11642 20.2859 8.34029 19.4883L12.7714 3.70099C12.9952 2.90339 13.8233 2.43828 14.6209 2.66215ZM7.56063 6.69658C8.14641 7.28237 8.14641 8.23212 7.56063 8.8179L4.37864 11.9999L7.56063 15.1819C8.14641 15.7677 8.14641 16.7174 7.56063 17.3032C6.97484 17.889 6.02509 17.889 5.4393 17.3032L1.19666 13.0605C0.915359 12.7792 0.757324 12.3977 0.757324 11.9999C0.757324 11.6021 0.915359 11.2205 1.19666 10.9392L5.4393 6.69658C6.02509 6.1108 6.97484 6.1108 7.56063 6.69658ZM16.4393 8.8179C15.8535 8.23212 15.8535 7.28237 16.4393 6.69658C17.0251 6.1108 17.9748 6.1108 18.5606 6.69658L22.8033 10.9392C23.0846 11.2205 23.2426 11.6021 23.2426 11.9999C23.2426 12.3977 23.0846 12.7792 22.8033 13.0605L18.5606 17.3032C17.9748 17.889 17.0251 17.889 16.4393 17.3032C15.8535 16.7174 15.8535 15.7677 16.4393 15.1819L19.6213 11.9999L16.4393 8.8179Z" fill="#D7D7D7"/>
</svg>
