<svg width="24" height="24" viewBox="0 0 24 24" fill="none" xmlns="http://www.w3.org/2000/svg">
<path d="M18 2C19.1046 2 20 2.89543 20 4V20C20 21.1046 19.1046 22 18 22H6C4.89543 22 4 21.1046 4 20V4C4 2.89543 4.89543 2 6 2H18ZM12 13H9C8.44772 13 8 13.4477 8 14C8 14.5523 8.44772 15 9 15H12C12.5523 15 13 14.5523 13 14C13 13.4477 12.5523 13 12 13ZM15 8H9C8.44772 8 8 8.44772 8 9C8 9.51283 8.38604 9.93551 8.88338 9.99327L9 10H15C15.5523 10 16 9.55228 16 9C16 8.48717 15.614 8.06449 15.1166 8.00673L15 8Z" fill="#D7D7D7"/>
</svg>
