<svg width="20" height="19" viewBox="0 0 20 19" fill="none" xmlns="http://www.w3.org/2000/svg">
<path d="M18 0.5C19.1046 0.5 20 1.39543 20 2.5L20 16.5C20 17.6046 19.1046 18.5 18 18.5L2 18.5C0.89543 18.5 0 17.6046 0 16.5L0 2.5C0 1.39543 0.89543 0.5 2 0.5L18 0.5ZM18 2.5L2 2.5L2 16.5H2.92886L12.2374 7.1915C12.7255 6.70334 13.517 6.70334 14.0051 7.1915L18 11.1864L18 2.5ZM5.5 4.5C6.32843 4.5 7 5.17157 7 6C7 6.82843 6.32843 7.5 5.5 7.5C4.67157 7.5 4 6.82843 4 6C4 5.17157 4.67157 4.5 5.5 4.5Z" fill="#E6FEF8"/>
</svg>
