<svg width="24" height="20" viewBox="0 0 24 20" fill="none" xmlns="http://www.w3.org/2000/svg">
<path d="M14.6209 0.662148C15.4185 0.886008 15.8836 1.71408 15.6597 2.51169L11.2287 18.299C11.0048 19.0966 10.1767 19.5617 9.37914 19.3378C8.58153 19.114 8.11642 18.2859 8.34029 17.4883L12.7714 1.70099C12.9952 0.903388 13.8233 0.438278 14.6209 0.662148ZM7.56063 4.69658C8.14641 5.28237 8.14641 6.23212 7.56063 6.8179L4.37864 9.9999L7.56063 13.1819C8.14641 13.7677 8.14641 14.7174 7.56063 15.3032C6.97484 15.889 6.02509 15.889 5.4393 15.3032L1.19666 11.0605C0.915359 10.7792 0.757324 10.3977 0.757324 9.9999C0.757324 9.6021 0.915359 9.2205 1.19666 8.9392L5.4393 4.69658C6.02509 4.1108 6.97484 4.1108 7.56063 4.69658ZM16.4393 6.8179C15.8535 6.23212 15.8535 5.28237 16.4393 4.69658C17.0251 4.1108 17.9748 4.1108 18.5606 4.69658L22.8033 8.9392C23.0846 9.2205 23.2426 9.6021 23.2426 9.9999C23.2426 10.3977 23.0846 10.7792 22.8033 11.0605L18.5606 15.3032C17.9748 15.889 17.0251 15.889 16.4393 15.3032C15.8535 14.7174 15.8535 13.7677 16.4393 13.1819L19.6213 9.9999L16.4393 6.8179Z" fill="#E6FEF8"/>
</svg>
