<svg width="24" height="24" viewBox="0 0 24 24" fill="none" xmlns="http://www.w3.org/2000/svg">
<path d="M9 3C9.55228 3 10 3.44772 10 4C10 4.51283 9.61396 4.93551 9.11662 4.99327L9 5H5V19H19V10C19 9.44772 19.4477 9 20 9C20.5128 9 20.9355 9.38604 20.9933 9.88338L21 10V19C21 20.0544 20.1841 20.9182 19.1493 20.9945L19 21H5C3.94564 21 3.08183 20.1841 3.00549 19.1493L3 19V5C3 3.94564 3.81588 3.08183 4.85074 3.00549L5 3H9ZM19.5128 3C20.1351 3 20.4967 3.46833 20.5878 3.85625C20.6791 4.24461 20.5633 4.82708 20.0029 5.10302L19.589 5.31428C19.5363 5.34207 19.4815 5.37129 19.4247 5.40194L19.0615 5.60308L18.6572 5.83858L18.218 6.10839C17.5361 6.53882 16.7574 7.08484 15.9764 7.74555C14.3223 9.14484 12.7183 11.0073 11.9487 13.3162C11.774 13.8402 11.2077 14.1233 10.6838 13.9487C10.1598 13.774 9.87667 13.2077 10.0513 12.6838C10.9792 9.90024 12.8736 7.75071 14.6847 6.21863C15.1162 5.85354 15.5465 5.52059 15.9628 5.21968L16.2722 5H14C13.4477 5 13 4.55228 13 4C13 3.48717 13.386 3.06449 13.8834 3.00673L14 3H19.5128Z" fill="#D7D7D7"/>
</svg>
